HIERARCHY
ROOT Hips
{
	OFFSET -0.179506 -22.333345 2.821913
	CHANNELS 6 Xposition Yposition Zposition Zrotation Yrotation Xrotation 
	JOINT LeftUpLeg
	{
		OFFSET 6.951974 -9.140623 -0.681533
		CHANNELS 3 Zrotation Yrotation Xrotation
		JOINT LeftLeg
		{
			OFFSET 3.427654 -37.519855 -0.449580
			CHANNELS 3 Zrotation Yrotation Xrotation
			JOINT LeftFoot
			{
				OFFSET -1.359570 -39.796059 -4.369333
				CHANNELS 3 Zrotation Yrotation Xrotation
				JOINT LeftToe
				{
					OFFSET 2.635814 -5.579078 11.928840
					CHANNELS 3 Zrotation Yrotation Xrotation
					End Site
					{
						OFFSET 0.000000 0.000000 0.000000
					}
				}
			}
		}
	}
	JOINT RightUpLeg
	{
		OFFSET -6.767048 -9.052170 -0.431982
		CHANNELS 3 Zrotation Yrotation Xrotation
		JOINT RightLeg
		{
			OFFSET -3.829005 -38.256897 -0.885003
			CHANNELS 3 Zrotation Yrotation Xrotation
			JOINT RightFoot
			{
				OFFSET 1.577377 -39.841461 -4.231180
				CHANNELS 3 Zrotation Yrotation Xrotation
				JOINT RightToe
				{
					OFFSET -2.537174 -4.814398 12.334795
					CHANNELS 3 Zrotation Yrotation Xrotation
					End Site
					{
						OFFSET 0.000000 0.000000 0.000000
					}
				}
			}
		}
	}
	JOINT Spine
	{
		OFFSET -0.253288 10.896323 -2.669631
		CHANNELS 3 Zrotation Yrotation Xrotation
		JOINT Spine1
		{
			OFFSET 0.548704 13.518043 0.109247
			CHANNELS 3 Zrotation Yrotation Xrotation
			JOINT Spine2
			{
				OFFSET 0.145701 5.292222 2.542457
				CHANNELS 3 Zrotation Yrotation Xrotation
				JOINT Neck
				{
					OFFSET -0.277840 21.387037 -4.285703
					CHANNELS 3 Zrotation Yrotation Xrotation
					JOINT Head
					{
						OFFSET 0.515184 6.496960 5.134897
						CHANNELS 3 Zrotation Yrotation Xrotation
						End Site
						{
							OFFSET 0.000000 0.000000 0.000000
						}
					}
				}
				JOINT LeftShoulder
				{
					OFFSET 7.884473 12.174932 -3.408961
					CHANNELS 3 Zrotation Yrotation Xrotation
					JOINT LeftArm
					{
						OFFSET 9.097692 3.046888 -0.886815
						CHANNELS 3 Zrotation Yrotation Xrotation
						JOINT LeftForeArm
						{
							OFFSET 25.961220 -1.277207 -2.745643
							CHANNELS 3 Zrotation Yrotation Xrotation
							JOINT LeftHand
							{
								OFFSET 24.923361 0.898606 -0.117091
								CHANNELS 3 Zrotation Yrotation Xrotation
								End Site
								{
									OFFSET 0.000000 0.000000 0.000000
								}
							}
						}
					}
				}
				JOINT RightShoulder
				{
					OFFSET -8.175920 11.883285 -3.861528
					CHANNELS 3 Zrotation Yrotation Xrotation
					JOINT RightArm
					{
						OFFSET -9.601238 3.255117 -0.914307
						CHANNELS 3 Zrotation Yrotation Xrotation
						JOINT RightForeArm
						{
							OFFSET -25.374195 -1.332924 -2.140099
							CHANNELS 3 Zrotation Yrotation Xrotation
							JOINT RightHand
							{
								OFFSET -25.529810 0.777228 -0.555919
								CHANNELS 3 Zrotation Yrotation Xrotation
								End Site
								{
									OFFSET 0.000000 0.000000 0.000000
								}
							}
						}
					}
				}
			}
		}
	}
}
MOTION
Frames: 8
Frame Time: 0.033333
-12.383824 94.398491 -27.528708 -175.777063 5.236395 -166.289078 18.813191 7.684613 -51.419650 -11.876513 6.632822 67.464150 1.651287 12.835531 -27.044345 2.194117 -1.145612 -1.329412 -17.161889 -14.542599 -47.947125 1.215225 -10.496719 71.848878 0.090545 -14.935812 -33.195448 1.603245 1.068425 -2.796433 2.041084 5.497002 46.259983 -6.467477 3.500005 -9.791772 -0.825811 5.501856 3.966586 0.226465 -4.589061 -14.727035 7.649097 -9.350317 -27.943064 -15.970358 -8.861540 1.190275 -25.531077 12.888813 4.995476 -7.480600 -15.410153 1.956663 -3.185160 -10.953922 -7.161601 3.243214 29.880549 -0.385870 22.585012 27.834789 -1.791018 9.296673 47.602573 12.855033 -5.865380 9.430481 -16.259261 
-13.050386 93.021530 -27.623455 -177.186424 10.792938 -166.923286 17.869921 7.402571 -51.923074 -11.367732 8.010133 72.002527 0.480171 14.647099 -28.491355 2.048531 -0.967291 -1.312535 -18.718447 -13.959562 -50.069106 2.637918 -8.039113 72.078682 0.619090 -14.529947 -36.357398 1.423046 0.851440 -2.758498 3.255478 3.623342 47.391038 -5.681412 3.049939 -9.987946 -0.969201 4.944366 3.735997 -0.333236 -4.954893 -15.130526 7.825300 -9.116749 -28.192935 -16.261521 -11.163272 0.283204 -25.292466 8.273045 4.171256 -6.573841 -14.473388 1.371822 -1.043595 -11.277142 -5.387639 4.876873 28.693237 0.471616 20.679465 24.555807 -2.171206 10.582398 47.703015 14.636074 -5.527146 9.703049 -15.056906 
-12.830752 92.596619 -27.880974 -178.302005 16.880141 -168.483372 17.001430 6.981131 -51.063581 -10.299605 8.289520 76.506085 -1.486951 16.476646 -26.970791 1.655533 -0.647123 -1.250757 -19.287681 -11.822414 -50.830125 4.412862 -4.793320 72.279912 1.311959 -12.823881 -38.151775 1.303841 0.490336 -2.742147 4.066690 1.565908 46.177989 -4.240749 2.584033 -9.616398 -0.602522 3.994114 3.920566 -0.893842 -5.042896 -15.392001 8.489665 -9.095791 -28.916342 -15.599786 -12.466653 -1.247430 -23.133285 3.552432 2.936361 -4.871190 -16.205908 0.007631 -0.666113 -10.736617 -1.719837 6.721643 25.597421 1.303288 17.576633 16.717218 -2.615769 10.293389 48.222581 14.406142 -3.191650 9.895943 -11.721045 
-13.504651 93.247993 -29.398455 -178.742108 22.869577 -169.093272 15.750590 6.148748 -49.228803 -9.277490 8.253626 79.727370 -2.689298 17.364369 -26.982256 1.147982 -0.300878 -1.118433 -19.305990 -9.153988 -50.774154 5.920358 -1.292876 72.787358 3.057285 -11.896072 -36.920535 1.067601 0.093643 -2.596989 4.509715 -0.216863 43.809355 -2.213667 1.955786 -10.276183 0.043324 2.718675 4.708774 -1.440949 -5.943101 -14.879287 9.535099 -9.486350 -29.768715 -14.065513 -12.679158 -2.745018 -16.246877 -0.614920 -0.283469 -3.127550 -21.514205 -3.576729 -0.486793 -10.018427 1.720637 9.514330 20.117664 2.563467 11.711608 5.601713 -4.934775 7.401971 42.571530 6.612037 0.185836 9.851941 -7.408756 
-14.048650 95.110970 -31.653662 -178.779571 28.378372 -170.349680 14.714966 5.433958 -43.699481 -9.855955 7.147740 79.522717 -1.014114 17.728503 -29.418147 0.861905 -0.182126 -1.022575 -18.228345 -7.394981 -46.767684 8.317270 2.316414 70.337312 2.760242 -12.750074 -34.342013 0.567201 0.016429 -2.764577 4.362428 -1.213164 39.294558 0.196848 0.930210 -11.719991 0.426943 1.025963 5.522592 -1.535017 -8.368033 -13.340607 12.125984 -10.059590 -28.770877 -9.590616 -12.383635 -4.878254 -6.023151 -5.423579 -4.417001 -0.712318 -30.515336 -8.249643 -1.198883 -11.425887 2.111546 9.536813 14.505504 1.966350 3.692216 -4.148397 -8.557830 4.890277 31.332337 -4.133419 5.802052 9.935654 -4.008919 
-14.147334 98.360580 -34.256546 -177.997605 34.281277 -173.578935 14.142067 5.627004 -34.212821 -10.639087 5.381177 75.808417 -0.344712 19.359714 -29.671148 0.445152 -0.449168 -0.853844 -17.134473 -5.880242 -40.222721 10.158993 4.277539 67.302711 3.307366 -11.756068 -26.477423 0.370332 0.180362 -2.958783 3.166650 -2.495995 33.999812 1.696409 -0.233265 -13.760835 0.337390 -0.967279 6.142530 -1.031593 -11.895611 -9.857493 14.340933 -10.842148 -26.052880 -2.845381 -12.531293 -7.172915 2.950685 -11.312990 -9.303072 2.277733 -37.398828 -11.525732 1.431846 -14.970004 -2.821134 5.622858 10.285524 -0.474861 -2.185637 -9.807197 -9.971900 4.042311 24.529444 -11.344827 8.034738 10.681142 -5.811885 
-13.071409 103.252068 -37.063343 -175.092829 40.885342 -174.575452 12.998834 5.897153 -24.076855 -10.902182 3.119012 66.960882 -0.269698 21.723430 -23.713275 -0.004890 -0.706753 -0.775522 -15.087973 -3.927356 -32.412136 9.594646 6.430987 56.982710 4.639858 -12.356408 -13.700998 0.410047 0.541094 -2.903289 1.834839 -3.855879 26.963311 2.609101 -2.071167 -14.904033 0.245570 -3.142092 6.930788 -1.036330 -15.265578 -4.718396 15.189379 -10.885467 -21.435295 4.032915 -14.446627 -8.098532 7.340660 -17.095707 -14.263571 4.647748 -35.857447 -12.356313 0.956220 -16.481763 -2.064655 -0.486606 7.898019 -2.160753 -5.516851 -11.477183 -9.310800 4.530182 19.535453 -10.936470 10.554099 10.514126 -4.640814 
-11.081028 109.431625 -39.918018 -170.813696 52.578651 -173.397127 11.460888 6.330926 -15.427685 -8.582161 1.249892 57.156123 0.247859 22.409907 -12.375790 -0.748663 -0.540507 -0.481674 -11.873870 -0.941902 -25.039467 6.992037 10.983090 41.051327 5.996497 -12.272509 0.899568 0.166103 0.627407 -2.751057 0.556513 -5.065460 20.332547 3.360763 -3.906202 -14.181207 0.293208 -4.533406 7.108758 -1.690600 -16.883320 -0.425664 14.349164 -8.786090 -16.601704 6.962763 -15.617985 -7.677895 9.520464 -18.030235 -16.301799 4.438036 -33.273096 -11.220837 -1.250223 -15.690623 1.446937 -3.628471 6.550738 -3.118331 -6.241043 -10.161555 -8.956472 2.968747 20.843968 -11.045586 11.484109 10.478976 -3.577714 
